# xmcd CD database file
#
# Track frame offsets:
#	150
#	6113
#	25831
#	44635
#	67278
#	83266
#	106117
#	125984
#	142786
#	156589
#	178965
#	197352
#
# Disc length: 2881 seconds
#
# Revision: 0
# Processed by: cddbd v1.5.1PL0 Copyright (c) Steve Scherf et al.
# Submitted via: CDex 1.51
#
DISCID=a20b3f0c
DTITLE=best of shape - Noise Mutation
DYEAR=2005
DGENRE=Game
TTITLE0=01. SF1 旅の始まり - Noise Exterminate Mix-
TTITLE1=02. SF1 battle#5 - Photoelectron Noise Mix-
TTITLE2=03. SF1 Last Battle RED - AXS to B4 Mix-
TTITLE3=04. SF2 Todfeind - Ray Trance Mix-
TTITLE4=05. SF1 Thema of Emilia - Source of Llight Mix-
TTITLE5=06. SF2 Thema - Eastern vision Mix-
TTITLE6=07. SF1 Last Battle T260G - Metallic Scrap Mix-
TTITLE7=08. SF1 まよい - Western fantasy Mix-
TTITLE8=09. SF1 Last Battle Asellus - With Shout Mix-
TTITLE9=10. SF2 Feldschlacht - Anblick Mix-
TTITLE10=11. SF1 Last Battle Emilia - o.t.s. Mix-
TTITLE11=12. SF2 薔薇の花冠 - PSG Trance Mix-
EXTD=YEAR: 2005
EXTT0=
EXTT1=
EXTT2=
EXTT3=
EXTT4=
EXTT5=
EXTT6=
EXTT7=
EXTT8=
EXTT9=
EXTT10=
EXTT11=
PLAYORDER=
